<svg xmlns="http://www.w3.org/2000/svg" xmlns:svg="http://www.w3.org/2000/svg" id="svg2" width="1161.188" height="425.55" version="1.1" viewBox="0 0 1161.188 425.55" xml:space="preserve"><metadata id="metadata8"/><defs id="defs6"><clipPath id="clipPath16" clipPathUnits="userSpaceOnUse"><path style="clip-rule:evenodd" id="path18" d="M 0,1.2207e-4 H 960 V 540.00012 H 0 Z"/></clipPath><clipPath id="clipPath38" clipPathUnits="userSpaceOnUse"><path style="clip-rule:evenodd" id="path40" d="M 1.4305e-5,0 H 960.00001 V 540 H 1.4305e-5 Z"/></clipPath><clipPath id="clipPath54" clipPathUnits="userSpaceOnUse"><path style="clip-rule:evenodd" id="path56" d="M 1.4305e-5,0 H 960.00001 V 540 H 1.4305e-5 Z"/></clipPath><clipPath id="clipPath70" clipPathUnits="userSpaceOnUse"><path style="clip-rule:evenodd" id="path72" d="M 1.4305e-5,0 H 960.00001 V 540 H 1.4305e-5 Z"/></clipPath><clipPath id="clipPath82" clipPathUnits="userSpaceOnUse"><path style="clip-rule:evenodd" id="path84" d="M 1.4305e-5,0 H 960.00001 V 540 H 1.4305e-5 Z"/></clipPath><clipPath id="clipPath98" clipPathUnits="userSpaceOnUse"><path style="clip-rule:evenodd" id="path100" d="M 1.4305e-5,0 H 960.00001 V 540 H 1.4305e-5 Z"/></clipPath><clipPath id="clipPath110" clipPathUnits="userSpaceOnUse"><path style="clip-rule:evenodd" id="path112" d="M 1.4305e-5,0 H 960.00001 V 540 H 1.4305e-5 Z"/></clipPath><clipPath id="clipPath126" clipPathUnits="userSpaceOnUse"><path style="clip-rule:evenodd" id="path128" d="M 1.4305e-5,0 H 960.00001 V 540 H 1.4305e-5 Z"/></clipPath><clipPath id="clipPath138" clipPathUnits="userSpaceOnUse"><path style="clip-rule:evenodd" id="path140" d="M 1.4305e-5,0 H 960.00001 V 540 H 1.4305e-5 Z"/></clipPath><clipPath id="clipPath154" clipPathUnits="userSpaceOnUse"><path style="clip-rule:evenodd" id="path156" d="M 1.4305e-5,0 H 960.00001 V 540 H 1.4305e-5 Z"/></clipPath><clipPath id="clipPath166" clipPathUnits="userSpaceOnUse"><path style="clip-rule:evenodd" id="path168" d="M 1.4305e-5,0 H 960.00001 V 540 H 1.4305e-5 Z"/></clipPath><clipPath id="clipPath182" clipPathUnits="userSpaceOnUse"><path style="clip-rule:evenodd" id="path184" d="M 1.4305e-5,0 H 960.00001 V 540 H 1.4305e-5 Z"/></clipPath><clipPath id="clipPath194" clipPathUnits="userSpaceOnUse"><path style="clip-rule:evenodd" id="path196" d="M 1.4305e-5,0 H 960.00001 V 540 H 1.4305e-5 Z"/></clipPath><clipPath id="clipPath210" clipPathUnits="userSpaceOnUse"><path style="clip-rule:evenodd" id="path212" d="M 1.4305e-5,0 H 960.00001 V 540 H 1.4305e-5 Z"/></clipPath><clipPath id="clipPath222" clipPathUnits="userSpaceOnUse"><path style="clip-rule:evenodd" id="path224" d="M 1.4305e-5,0 H 960.00001 V 540 H 1.4305e-5 Z"/></clipPath><clipPath id="clipPath238" clipPathUnits="userSpaceOnUse"><path style="clip-rule:evenodd" id="path240" d="M 1.4305e-5,0 H 960.00001 V 540 H 1.4305e-5 Z"/></clipPath><clipPath id="clipPath250" clipPathUnits="userSpaceOnUse"><path style="clip-rule:evenodd" id="path252" d="M 1.4305e-5,0 H 960.00001 V 540 H 1.4305e-5 Z"/></clipPath><clipPath id="clipPath286" clipPathUnits="userSpaceOnUse"><path style="clip-rule:evenodd" id="path288" d="M 1.4305e-5,0 H 960.00001 V 540 H 1.4305e-5 Z"/></clipPath><clipPath id="clipPath298" clipPathUnits="userSpaceOnUse"><path style="clip-rule:evenodd" id="path300" d="M 1.4305e-5,0 H 960.00001 V 540 H 1.4305e-5 Z"/></clipPath><clipPath id="clipPath310" clipPathUnits="userSpaceOnUse"><path style="clip-rule:evenodd" id="path312" d="M 1.4305e-5,0 H 960.00001 V 540 H 1.4305e-5 Z"/></clipPath><clipPath id="clipPath322" clipPathUnits="userSpaceOnUse"><path style="clip-rule:evenodd" id="path324" d="M 1.4305e-5,0 H 960.00001 V 540 H 1.4305e-5 Z"/></clipPath><clipPath id="clipPath334" clipPathUnits="userSpaceOnUse"><path style="clip-rule:evenodd" id="path336" d="M 1.4305e-5,0 H 960.00001 V 540 H 1.4305e-5 Z"/></clipPath><clipPath id="clipPath346" clipPathUnits="userSpaceOnUse"><path style="clip-rule:evenodd" id="path348" d="M 1.4305e-5,0 H 960.00001 V 540 H 1.4305e-5 Z"/></clipPath></defs><g id="g22" transform="matrix(1.25,0,0,-1.25,-6.525,615.9)"><path style="fill:none;stroke:#afabab;stroke-width:3;stroke-linecap:butt;stroke-linejoin:miter;stroke-miterlimit:10;stroke-dasharray:9,3;stroke-dashoffset:0;stroke-opacity:1" id="path24" d="M 10.74,252.06 H 934.17"/></g><g id="g26" transform="matrix(1.25,0,0,-1.25,-6.525,615.9)"><path style="fill:none;stroke:#afabab;stroke-width:3;stroke-linecap:butt;stroke-linejoin:miter;stroke-miterlimit:10;stroke-dasharray:9,3;stroke-dashoffset:0;stroke-opacity:1" id="path28" d="M 5.22,392.94 H 928.65"/></g><path style="fill:#fff;fill-opacity:1;fill-rule:evenodd;stroke:none;stroke-width:1.25" id="path30" d="m 543.9,13.075 c 0,-6.5125 5.2875,-11.8 11.8,-11.8 h 120.85 c 6.5125,0 11.8,5.2875 11.8,11.8 v 47.2 c 0,6.5125 -5.2875,11.8 -11.8,11.8 H 555.7 c -6.5125,0 -11.8,-5.2875 -11.8,-11.8 z"/><path style="fill:none;stroke:#000;stroke-width:2.54999995;stroke-linecap:butt;stroke-linejoin:miter;stroke-miterlimit:10;stroke-dasharray:none;stroke-opacity:1" id="path32" d="m 543.9,13.075 c 0,-6.5125 5.2875,-11.8 11.8,-11.8 h 120.85 c 6.5125,0 11.8,5.2875 11.8,11.8 v 47.2 c 0,6.5125 -5.2875,11.8 -11.8,11.8 H 555.7 c -6.5125,0 -11.8,-5.2875 -11.8,-11.8 z"/><g id="g34" transform="matrix(1.25,0,0,-1.25,-6.525,615.9)"><g id="g36" clip-path="url(#clipPath38)"><text style="font-variant:normal;font-weight:700;font-size:18px;font-family:Calibri;-inkscape-font-specification:Calibri-Bold;writing-mode:lr-tb;fill:#000;fill-opacity:1;fill-rule:nonzero;stroke:none" id="text42" transform="matrix(1,0,0,-1,471.48,457.44)"><tspan id="tspan44" x="0 9.522 13.95 18.378 28.044 32.472 39.996 48.888" y="0">Clinical</tspan></text></g></g><path style="fill:#fff;fill-opacity:1;fill-rule:evenodd;stroke:none;stroke-width:1.25" id="path46" d="m 322.05,13.075 c 0,-6.5125 5.2875,-11.8 11.8,-11.8 h 120.7 c 6.5125,0 11.8,5.2875 11.8,11.8 v 47.2 c 0,6.5125 -5.2875,11.8 -11.8,11.8 h -120.7 c -6.5125,0 -11.8,-5.2875 -11.8,-11.8 z"/><path style="fill:none;stroke:#000;stroke-width:2.54999995;stroke-linecap:butt;stroke-linejoin:miter;stroke-miterlimit:10;stroke-dasharray:none;stroke-opacity:1" id="path48" d="m 322.05,13.075 c 0,-6.5125 5.2875,-11.8 11.8,-11.8 h 120.7 c 6.5125,0 11.8,5.2875 11.8,11.8 v 47.2 c 0,6.5125 -5.2875,11.8 -11.8,11.8 h -120.7 c -6.5125,0 -11.8,-5.2875 -11.8,-11.8 z"/><g id="g50" transform="matrix(1.25,0,0,-1.25,-6.525,615.9)"><g id="g52" clip-path="url(#clipPath54)"><text style="font-variant:normal;font-weight:700;font-size:18px;font-family:Calibri;-inkscape-font-specification:Calibri-Bold;writing-mode:lr-tb;fill:#000;fill-opacity:1;fill-rule:nonzero;stroke:none" id="text58" transform="matrix(1,0,0,-1,284.57,457.44)"><tspan id="tspan60" x="0 10.098 14.526 24.21 28.638 38.376 46.908 51.336 58.77 67.662" y="0">Biological</tspan></text></g></g><path style="fill:#fff;fill-opacity:1;fill-rule:evenodd;stroke:none;stroke-width:1.25" id="path62" d="m 81.3,189.175 c 0,-6.5125 5.28375,-11.8 11.8,-11.8 h 139.6 c 6.5125,0 11.8,5.2875 11.8,11.8 v 47.2 c 0,6.5125 -5.2875,11.8 -11.8,11.8 H 93.1 c -6.51625,0 -11.8,-5.2875 -11.8,-11.8 z"/><path style="fill:none;stroke:#000;stroke-width:2.54999995;stroke-linecap:butt;stroke-linejoin:miter;stroke-miterlimit:10;stroke-dasharray:none;stroke-opacity:1" id="path64" d="m 81.3,189.175 c 0,-6.5125 5.28375,-11.8 11.8,-11.8 h 139.6 c 6.5125,0 11.8,5.2875 11.8,11.8 v 47.2 c 0,6.5125 -5.2875,11.8 -11.8,11.8 H 93.1 c -6.51625,0 -11.8,-5.2875 -11.8,-11.8 z"/><g id="g66" transform="matrix(1.25,0,0,-1.25,-6.525,615.9)"><g id="g68" clip-path="url(#clipPath70)"><text style="font-variant:normal;font-weight:700;font-size:18px;font-family:Calibri;-inkscape-font-specification:Calibri-Bold;writing-mode:lr-tb;fill:#000;fill-opacity:1;fill-rule:nonzero;stroke:none" id="text74" transform="matrix(1,0,0,-1,84.432,327.31)"><tspan id="tspan76" x="0 11.862 20.754 35.388 44.496 54.198 58.032 67.14 76.734 82.98 87.408 93.654 102.186" y="0">Named entity</tspan></text></g></g><g id="g78" transform="matrix(1.25,0,0,-1.25,-6.525,615.9)"><g id="g80" clip-path="url(#clipPath82)"><text style="font-variant:normal;font-weight:700;font-size:18px;font-family:Calibri;-inkscape-font-specification:Calibri-Bold;writing-mode:lr-tb;fill:#000;fill-opacity:1;fill-rule:nonzero;stroke:none" id="text86" transform="matrix(1,0,0,-1,93.072,305.71)"><tspan id="tspan88" x="0 6.12 15.228 22.662 32.346 40.878 50.598 55.026 61.272 65.592 75.276" y="0">recognition</tspan></text></g></g><path style="fill:#fff;fill-opacity:1;fill-rule:evenodd;stroke:none;stroke-width:1.25" id="path90" d="m 420.9,189.175 c 0,-6.5125 5.2875,-11.8 11.8,-11.8 h 145 c 6.5125,0 11.8,5.2875 11.8,11.8 v 47.2 c 0,6.5125 -5.2875,11.8 -11.8,11.8 h -145 c -6.5125,0 -11.8,-5.2875 -11.8,-11.8 z"/><path style="fill:none;stroke:#000;stroke-width:2.54999995;stroke-linecap:butt;stroke-linejoin:miter;stroke-miterlimit:10;stroke-dasharray:none;stroke-opacity:1" id="path92" d="m 420.9,189.175 c 0,-6.5125 5.2875,-11.8 11.8,-11.8 h 145 c 6.5125,0 11.8,5.2875 11.8,11.8 v 47.2 c 0,6.5125 -5.2875,11.8 -11.8,11.8 h -145 c -6.5125,0 -11.8,-5.2875 -11.8,-11.8 z"/><g id="g94" transform="matrix(1.25,0,0,-1.25,-6.525,615.9)"><g id="g96" clip-path="url(#clipPath98)"><text style="font-variant:normal;font-weight:700;font-size:18px;font-family:Calibri;-inkscape-font-specification:Calibri-Bold;writing-mode:lr-tb;fill:#000;fill-opacity:1;fill-rule:nonzero;stroke:none" id="text102" transform="matrix(1,0,0,-1,353.69,327.31)"><tspan id="tspan104" x="0 9.846 18.954 23.382 32.148 38.394 42.822 52.506 62.172 69.822 78.102 86.508 95.508 104.994 111.24" y="0">Relation/Event</tspan></text></g></g><g id="g106" transform="matrix(1.25,0,0,-1.25,-6.525,615.9)"><g id="g108" clip-path="url(#clipPath110)"><text style="font-variant:normal;font-weight:700;font-size:18px;font-family:Calibri;-inkscape-font-specification:Calibri-Bold;writing-mode:lr-tb;fill:#000;fill-opacity:1;fill-rule:nonzero;stroke:none" id="text114" transform="matrix(1,0,0,-1,371.33,305.71)"><tspan id="tspan116" x="0 8.874 17.136 23.382 29.394 38.286 45.81 52.056 56.484 66.222" y="0">extraction</tspan></text></g></g><path style="fill:#fff;fill-opacity:1;fill-rule:evenodd;stroke:none;stroke-width:1.25" id="path118" d="m 765.75,189.175 c 0,-6.5125 5.2875,-11.8 11.8,-11.8 h 139.6 c 6.5125,0 11.8,5.2875 11.8,11.8 v 47.2 c 0,6.5125 -5.2875,11.8 -11.8,11.8 h -139.6 c -6.5125,0 -11.8,-5.2875 -11.8,-11.8 z"/><path style="fill:none;stroke:#000;stroke-width:2.54999995;stroke-linecap:butt;stroke-linejoin:miter;stroke-miterlimit:10;stroke-dasharray:none;stroke-opacity:1" id="path120" d="m 765.75,189.175 c 0,-6.5125 5.2875,-11.8 11.8,-11.8 h 139.6 c 6.5125,0 11.8,5.2875 11.8,11.8 v 47.2 c 0,6.5125 -5.2875,11.8 -11.8,11.8 h -139.6 c -6.5125,0 -11.8,-5.2875 -11.8,-11.8 z"/><g id="g122" transform="matrix(1.25,0,0,-1.25,-6.525,615.9)"><g id="g124" clip-path="url(#clipPath126)"><text style="font-variant:normal;font-weight:700;font-size:18px;font-family:Calibri;-inkscape-font-specification:Calibri-Bold;writing-mode:lr-tb;fill:#000;fill-opacity:1;fill-rule:nonzero;stroke:none" id="text130" transform="matrix(1,0,0,-1,638.5,327.31)"><tspan id="tspan132" x="0 4.806 14.4 19.8 29.484 35.874 50.508 59.274 65.52 69.948 79.632 89.298" y="0">Information</tspan></text></g></g><g id="g134" transform="matrix(1.25,0,0,-1.25,-6.525,615.9)"><g id="g136" clip-path="url(#clipPath138)"><text style="font-variant:normal;font-weight:700;font-size:18px;font-family:Calibri;-inkscape-font-specification:Calibri-Bold;writing-mode:lr-tb;fill:#000;fill-opacity:1;fill-rule:nonzero;stroke:none" id="text142" transform="matrix(1,0,0,-1,651.7,305.71)"><tspan id="tspan144" x="0 6.12 15.12 21.366 27.756 32.184 41.166 49.446 58.338" y="0">retrieval</tspan></text></g></g><path style="fill:#fff;fill-opacity:1;fill-rule:evenodd;stroke:none;stroke-width:1.25" id="path146" d="m 64.35,365.275 c 0,-6.5125 5.28375,-11.8 11.8,-11.8 h 139.6 c 6.5125,0 11.8,5.2875 11.8,11.8 v 47.2 c 0,6.5125 -5.2875,11.8 -11.8,11.8 H 76.15 c -6.51625,0 -11.8,-5.2875 -11.8,-11.8 z"/><path style="fill:none;stroke:#000;stroke-width:2.54999995;stroke-linecap:butt;stroke-linejoin:miter;stroke-miterlimit:10;stroke-dasharray:none;stroke-opacity:1" id="path148" d="m 64.35,365.275 c 0,-6.5125 5.28375,-11.8 11.8,-11.8 h 139.6 c 6.5125,0 11.8,5.2875 11.8,11.8 v 47.2 c 0,6.5125 -5.2875,11.8 -11.8,11.8 H 76.15 c -6.51625,0 -11.8,-5.2875 -11.8,-11.8 z"/><g id="g150" transform="matrix(1.25,0,0,-1.25,-6.525,615.9)"><g id="g152" clip-path="url(#clipPath154)"><text style="font-variant:normal;font-weight:700;font-size:18px;font-family:Calibri;-inkscape-font-specification:Calibri-Bold;writing-mode:lr-tb;fill:#000;fill-opacity:1;fill-rule:nonzero;stroke:none" id="text158" transform="matrix(1,0,0,-1,101.28,186.38)"><tspan id="tspan160" x="0 15.606 25.29 31.446 41.148" y="0">Word</tspan></text></g></g><g id="g162" transform="matrix(1.25,0,0,-1.25,-6.525,615.9)"><g id="g164" clip-path="url(#clipPath166)"><text style="font-variant:normal;font-weight:700;font-size:18px;font-family:Calibri;-inkscape-font-specification:Calibri-Bold;writing-mode:lr-tb;fill:#000;fill-opacity:1;fill-rule:nonzero;stroke:none" id="text170" transform="matrix(1,0,0,-1,76.2,164.78)"><tspan id="tspan172" x="0 9.108 23.742 33.444 42.552 52.146 61.74 66.168 75.834 84.294" y="0">embeddings</tspan></text></g></g><path style="fill:#fff;fill-opacity:1;fill-rule:evenodd;stroke:none;stroke-width:1.25" id="path174" d="m 539.85,365.275 c 0,-6.5125 5.2875,-11.8 11.8,-11.8 H 704.6 c 6.5125,0 11.8,5.2875 11.8,11.8 v 47.2 c 0,6.5125 -5.2875,11.8 -11.8,11.8 H 551.65 c -6.5125,0 -11.8,-5.2875 -11.8,-11.8 z"/><path style="fill:none;stroke:#000;stroke-width:2.54999995;stroke-linecap:butt;stroke-linejoin:miter;stroke-miterlimit:10;stroke-dasharray:none;stroke-opacity:1" id="path176" d="m 539.85,365.275 c 0,-6.5125 5.2875,-11.8 11.8,-11.8 H 704.6 c 6.5125,0 11.8,5.2875 11.8,11.8 v 47.2 c 0,6.5125 -5.2875,11.8 -11.8,11.8 H 551.65 c -6.5125,0 -11.8,-5.2875 -11.8,-11.8 z"/><g id="g178" transform="matrix(1.25,0,0,-1.25,-6.525,615.9)"><g id="g180" clip-path="url(#clipPath182)"><text style="font-variant:normal;font-weight:700;font-size:18px;font-family:Calibri;-inkscape-font-specification:Calibri-Bold;writing-mode:lr-tb;fill:#000;fill-opacity:1;fill-rule:nonzero;stroke:none" id="text186" transform="matrix(1,0,0,-1,455.76,186.38)"><tspan id="tspan188" x="0 9.522 19.206 28.746 37.17 46.89 51.318 60.984 67.23 71.532 81.252 90.918 99.81 104.094" y="0">Convolutional</tspan></text></g></g><g id="g190" transform="matrix(1.25,0,0,-1.25,-6.525,615.9)"><g id="g192" clip-path="url(#clipPath194)"><text style="font-variant:normal;font-weight:700;font-size:18px;font-family:Calibri;-inkscape-font-specification:Calibri-Bold;writing-mode:lr-tb;fill:#000;fill-opacity:1;fill-rule:nonzero;stroke:none" id="text198" transform="matrix(1,0,0,-1,447.12,164.78)"><tspan id="tspan200" x="0 9.702 18.81 28.512 34.506 43.398 47.826 51.552 61.254 70.254 76.5 89.82 99.414 105.66 114.066" y="0">neural networks</tspan></text></g></g><path style="fill:#fff;fill-opacity:1;fill-rule:evenodd;stroke:none;stroke-width:1.25" id="path202" d="m 302.4,365.275 c 0,-6.5125 5.2875,-11.8 11.8,-11.8 h 152.95 c 6.5125,0 11.8,5.2875 11.8,11.8 v 47.2 c 0,6.5125 -5.2875,11.8 -11.8,11.8 H 314.2 c -6.5125,0 -11.8,-5.2875 -11.8,-11.8 z"/><path style="fill:none;stroke:#000;stroke-width:2.54999995;stroke-linecap:butt;stroke-linejoin:miter;stroke-miterlimit:10;stroke-dasharray:none;stroke-opacity:1" id="path204" d="m 302.4,365.275 c 0,-6.5125 5.2875,-11.8 11.8,-11.8 h 152.95 c 6.5125,0 11.8,5.2875 11.8,11.8 v 47.2 c 0,6.5125 -5.2875,11.8 -11.8,11.8 H 314.2 c -6.5125,0 -11.8,-5.2875 -11.8,-11.8 z"/><g id="g206" transform="matrix(1.25,0,0,-1.25,-6.525,615.9)"><g id="g208" clip-path="url(#clipPath210)"><text style="font-variant:normal;font-weight:700;font-size:18px;font-family:Calibri;-inkscape-font-specification:Calibri-Bold;writing-mode:lr-tb;fill:#000;fill-opacity:1;fill-rule:nonzero;stroke:none" id="text214" transform="matrix(1,0,0,-1,280.85,186.38)"><tspan id="tspan216" x="0 9.846 18.954 26.478 36.216 42.606 48.69 57.798 67.284 73.53" y="0">Recurrent</tspan></text></g></g><g id="g218" transform="matrix(1.25,0,0,-1.25,-6.525,615.9)"><g id="g220" clip-path="url(#clipPath222)"><text style="font-variant:normal;font-weight:700;font-size:18px;font-family:Calibri;-inkscape-font-specification:Calibri-Bold;writing-mode:lr-tb;fill:#000;fill-opacity:1;fill-rule:nonzero;stroke:none" id="text226" transform="matrix(1,0,0,-1,257.06,164.78)"><tspan id="tspan228" x="0 9.702 18.81 28.512 34.506 43.398 47.826 51.552 61.254 70.254 76.5 89.82 99.414 105.66 114.066" y="0">neural networks</tspan></text></g></g><path style="fill:#fff;fill-opacity:1;fill-rule:evenodd;stroke:none;stroke-width:1.25" id="path230" d="m 769.35,365.275 c 0,-6.5125 5.2875,-11.8 11.8,-11.8 h 153.1 c 6.5125,0 11.8,5.2875 11.8,11.8 v 47.2 c 0,6.5125 -5.2875,11.8 -11.8,11.8 h -153.1 c -6.5125,0 -11.8,-5.2875 -11.8,-11.8 z"/><path style="fill:none;stroke:#000;stroke-width:2.54999995;stroke-linecap:butt;stroke-linejoin:miter;stroke-miterlimit:10;stroke-dasharray:none;stroke-opacity:1" id="path232" d="m 769.35,365.275 c 0,-6.5125 5.2875,-11.8 11.8,-11.8 h 153.1 c 6.5125,0 11.8,5.2875 11.8,11.8 v 47.2 c 0,6.5125 -5.2875,11.8 -11.8,11.8 h -153.1 c -6.5125,0 -11.8,-5.2875 -11.8,-11.8 z"/><g id="g234" transform="matrix(1.25,0,0,-1.25,-6.525,615.9)"><g id="g236" clip-path="url(#clipPath238)"><text style="font-variant:normal;font-weight:700;font-size:18px;font-family:Calibri;-inkscape-font-specification:Calibri-Bold;writing-mode:lr-tb;fill:#000;fill-opacity:1;fill-rule:nonzero;stroke:none" id="text242" transform="matrix(1,0,0,-1,655.75,186.38)"><tspan id="tspan244" x="0 9.846 18.954 26.478 36.216 42.336 49.518 53.946 62.262 71.262" y="0">Recursive</tspan></text></g></g><g id="g246" transform="matrix(1.25,0,0,-1.25,-6.525,615.9)"><g id="g248" clip-path="url(#clipPath250)"><text style="font-variant:normal;font-weight:700;font-size:18px;font-family:Calibri;-inkscape-font-specification:Calibri-Bold;writing-mode:lr-tb;fill:#000;fill-opacity:1;fill-rule:nonzero;stroke:none" id="text254" transform="matrix(1,0,0,-1,630.79,164.78)"><tspan id="tspan256" x="0 9.702 18.81 28.512 34.506 43.398 47.826 51.552 61.254 70.254 76.5 89.82 99.414 105.66 114.066" y="0">neural networks</tspan></text></g></g><path style="fill:none;stroke:#000;stroke-width:1.94999993;stroke-linecap:butt;stroke-linejoin:miter;stroke-miterlimit:10;stroke-dasharray:none;stroke-opacity:1" id="path258" d="M 394.1375,72.075 162.9,177.35"/><path style="fill:none;stroke:#000;stroke-width:1.94999993;stroke-linecap:butt;stroke-linejoin:miter;stroke-miterlimit:10;stroke-dasharray:none;stroke-opacity:1" id="path260" d="M 394.2,72.075 505.15,177.35"/><path style="fill:none;stroke:#000;stroke-width:1.94999993;stroke-linecap:butt;stroke-linejoin:miter;stroke-miterlimit:10;stroke-dasharray:none;stroke-opacity:1" id="path262" d="M 394.2,72.075 847.35,177.35"/><path style="fill:none;stroke:#000;stroke-width:1.94999993;stroke-linecap:butt;stroke-linejoin:miter;stroke-miterlimit:10;stroke-dasharray:none;stroke-opacity:1" id="path264" d="M 616.05,72.075 162.9,177.35"/><path style="fill:none;stroke:#000;stroke-width:1.94999993;stroke-linecap:butt;stroke-linejoin:miter;stroke-miterlimit:10;stroke-dasharray:none;stroke-opacity:1" id="path266" d="M 616.15,72.075 505.2,177.35"/><path style="fill:none;stroke:#000;stroke-width:1.94999993;stroke-linecap:butt;stroke-linejoin:miter;stroke-miterlimit:10;stroke-dasharray:none;stroke-opacity:1" id="path268" d="M 162.975,248.175 145.95,353.45"/><path style="fill:none;stroke:#000;stroke-width:1.94999993;stroke-linecap:butt;stroke-linejoin:miter;stroke-miterlimit:10;stroke-dasharray:none;stroke-opacity:1" id="path270" d="M 505.175,248.175 145.95,353.45"/><path style="fill:none;stroke:#000;stroke-width:1.94999993;stroke-linecap:butt;stroke-linejoin:miter;stroke-miterlimit:10;stroke-dasharray:none;stroke-opacity:1" id="path272" d="M 847.375,248.175 145.95,353.45"/><path style="fill:none;stroke:#000;stroke-width:1.94999993;stroke-linecap:butt;stroke-linejoin:miter;stroke-miterlimit:10;stroke-dasharray:none;stroke-opacity:1" id="path274" d="M 390.575,353.45 162.9,248.175"/><path style="fill:none;stroke:#000;stroke-width:1.94999993;stroke-linecap:butt;stroke-linejoin:miter;stroke-miterlimit:10;stroke-dasharray:none;stroke-opacity:1" id="path276" d="M 390.6,353.45 505.1125,248.175"/><path style="fill:none;stroke:#000;stroke-width:1.94999993;stroke-linecap:butt;stroke-linejoin:miter;stroke-miterlimit:10;stroke-dasharray:none;stroke-opacity:1" id="path278" d="M 628.225,353.45 505.2,248.175"/><path style="fill:none;stroke:#000;stroke-width:1.94999993;stroke-linecap:butt;stroke-linejoin:miter;stroke-miterlimit:10;stroke-dasharray:none;stroke-opacity:1" id="path280" d="M 628.2,353.45 847.375,248.175"/><g id="g282" transform="matrix(1.25,0,0,-1.25,-6.525,615.9)"><g id="g284" clip-path="url(#clipPath286)"><text style="font-variant:normal;font-weight:700;font-size:18px;font-family:Calibri;-inkscape-font-specification:Calibri-Bold;writing-mode:lr-tb;fill:#000;fill-opacity:1;fill-rule:nonzero;stroke:none" id="text290" transform="matrix(1,0,0,-1,792.53,457.58)"><tspan id="tspan292" x="0 10.908 20.628 30.33 34.758 39.186 46.656 55.296 61.542 65.97 75.582 85.176" y="0">Applications</tspan></text></g></g><g id="g294" transform="matrix(1.25,0,0,-1.25,-6.525,615.9)"><g id="g296" clip-path="url(#clipPath298)"><text style="font-variant:normal;font-weight:700;font-size:18.02400017px;font-family:Calibri;-inkscape-font-specification:Calibri-Bold;writing-mode:lr-tb;fill:#000;fill-opacity:1;fill-rule:nonzero;stroke:none" id="text302" transform="matrix(1,0,0,-1,784.85,327.58)"><tspan id="tspan304" x="0 11.878 20.637 26.892 36.571 42.591 51.495 55.928 59.75 64.183 73.087 82.766 91.31 100.988 109.892 118.183 127.249" y="0">Natural language</tspan></text></g></g><g id="g306" transform="matrix(1.25,0,0,-1.25,-6.525,615.9)"><g id="g308" clip-path="url(#clipPath310)"><text style="font-variant:normal;font-weight:700;font-size:18px;font-family:Calibri;-inkscape-font-specification:Calibri-Bold;writing-mode:lr-tb;fill:#000;fill-opacity:1;fill-rule:nonzero;stroke:none" id="text314" transform="matrix(1,0,0,-1,784.85,305.95)"><tspan id="tspan316" x="0 9.702 15.822 25.506 33.084 42.192 49.374 56.466 60.786 70.488 78.894 82.962 89.1 97.992 105.174 113.58" y="0">processing tasks</tspan></text></g></g><g id="g318" transform="matrix(1.25,0,0,-1.25,-6.525,615.9)"><g id="g320" clip-path="url(#clipPath322)"><text style="font-variant:normal;font-weight:700;font-size:18px;font-family:Calibri;-inkscape-font-specification:Calibri-Bold;writing-mode:lr-tb;fill:#000;fill-opacity:1;fill-rule:nonzero;stroke:none" id="text326" transform="matrix(1,0,0,-1,784.85,186.17)"><tspan id="tspan328" x="0 11.4 20.514 29.628 39.354" y="0">Deep</tspan></text></g></g><g id="g330" transform="matrix(1.25,0,0,-1.25,-6.525,615.9)"><g id="g332" clip-path="url(#clipPath334)"><text style="font-variant:normal;font-weight:700;font-size:18px;font-family:Calibri;-inkscape-font-specification:Calibri-Bold;writing-mode:lr-tb;fill:#000;fill-opacity:1;fill-rule:nonzero;stroke:none" id="text338" transform="matrix(1,0,0,-1,827.93,186.17)"><tspan id="tspan340" x="0 4.428 13.536 22.428 28.818 38.484 42.912 52.632 61.164" y="0">learning</tspan></text></g></g><g id="g342" transform="matrix(1.25,0,0,-1.25,-6.525,615.9)"><g id="g344" clip-path="url(#clipPath346)"><text style="font-variant:normal;font-weight:700;font-size:18px;font-family:Calibri;-inkscape-font-specification:Calibri-Bold;writing-mode:lr-tb;fill:#000;fill-opacity:1;fill-rule:nonzero;stroke:none" id="text350" transform="matrix(1,0,0,-1,784.85,164.57)"><tspan id="tspan352" x="0 14.634 24.318 34.056 43.164 47.592" y="0">models</tspan></text></g></g><path style="fill:none;stroke:#000;stroke-width:1.94999993;stroke-linecap:butt;stroke-linejoin:miter;stroke-miterlimit:10;stroke-dasharray:none;stroke-opacity:1" id="path354" d="M 857.7625,353.45 505.2,248.175"/></svg>